<?xml version="1.0" standalone="no"?>
<!DOCTYPE svg PUBLIC "-//W3C//DTD SVG 20010904//EN"
 "http://www.w3.org/TR/2001/REC-SVG-20010904/DTD/svg10.dtd">
<svg version="1.0" xmlns="http://www.w3.org/2000/svg"
 width="1080.000000pt" height="1080.000000pt" viewBox="0 0 1080.000000 1080.000000"
 preserveAspectRatio="xMidYMid meet">

<g transform="translate(0.000000,1080.000000) scale(0.100000,-0.100000)"
fill="#000000" stroke="none">
<path d="M5077 10493 c-11 -10 -8 -41 7 -92 8 -25 19 -73 25 -106 5 -33 16
-91 24 -130 8 -38 22 -108 31 -155 9 -46 21 -89 26 -94 6 -6 10 -28 10 -51 0
-22 5 -56 10 -75 14 -45 37 -154 55 -251 15 -83 35 -160 44 -171 4 -4 63 -12
131 -17 94 -7 128 -7 136 2 6 7 25 46 44 87 41 94 66 148 128 280 28 58 59
128 71 155 12 28 28 62 36 77 8 14 15 31 15 38 0 6 9 23 19 36 l19 25 7 -31
c4 -16 11 -32 16 -35 5 -4 9 -25 9 -48 0 -23 5 -60 11 -82 6 -22 17 -71 24
-110 7 -38 17 -90 23 -115 20 -81 33 -144 48 -228 20 -119 20 -118 116 -131
46 -6 105 -13 132 -14 l49 -2 52 115 c29 63 60 131 69 150 31 69 88 196 117
258 16 34 29 64 29 67 0 3 14 33 30 67 25 50 91 201 144 328 4 8 13 26 21 40
8 14 11 28 7 32 -4 4 -58 10 -119 14 l-112 7 -17 -39 c-10 -21 -34 -75 -55
-119 -21 -45 -56 -124 -79 -175 -23 -52 -50 -113 -60 -135 -10 -22 -35 -76
-55 -120 -54 -119 -67 -145 -75 -145 -14 0 -29 47 -34 105 -3 33 -12 87 -19
120 -8 33 -21 94 -30 135 -9 41 -21 98 -27 125 -6 28 -17 86 -24 130 -12 70
-34 163 -42 174 -4 5 -172 30 -204 31 -22 0 -30 -9 -54 -62 -30 -66 -65 -143
-117 -255 -17 -38 -43 -93 -57 -123 -76 -166 -143 -302 -148 -298 -2 3 -11 40
-19 82 -8 42 -19 86 -25 96 -5 10 -10 36 -10 56 0 21 -6 65 -14 98 -8 34 -22
95 -30 136 -9 41 -23 107 -32 145 -8 39 -19 94 -24 123 -5 30 -10 56 -12 58
-5 4 -178 24 -214 24 -11 0 -24 -3 -27 -7z"/>
<path d="M3669 9858 c-68 -53 -83 -71 -113 -133 l-25 -50 -14 35 c-8 19 -17
43 -20 53 -5 13 -11 15 -24 8 -10 -6 -57 -27 -105 -47 -49 -20 -88 -39 -88
-41 0 -5 4 -14 43 -91 9 -19 17 -38 17 -42 0 -8 32 -81 91 -206 10 -23 19 -44
19 -48 0 -3 14 -36 31 -73 17 -38 46 -99 63 -138 18 -38 41 -90 51 -115 10
-25 22 -49 25 -53 4 -4 40 7 81 26 41 19 89 40 107 47 38 15 38 17 13 67 -31
60 -131 293 -152 352 -24 69 -24 108 0 165 21 48 77 96 137 118 19 7 34 17 34
23 -1 25 -87 180 -101 183 -9 2 -40 -16 -70 -40z"/>
<path d="M7145 9761 c-76 -18 -160 -67 -212 -122 -17 -19 -49 -65 -69 -104
-37 -67 -38 -74 -42 -185 -4 -113 -3 -117 28 -182 90 -192 362 -337 555 -296
l60 13 -3 40 c-2 22 -11 63 -20 90 l-17 50 -58 -3 c-116 -8 -236 46 -291 128
-31 48 -47 146 -24 155 14 6 69 -19 522 -236 55 -26 63 -24 85 19 85 166 59
375 -61 494 -65 65 -156 114 -254 138 -100 23 -106 23 -199 1z m232 -201 c56
-28 78 -50 102 -97 25 -50 29 -141 7 -149 -7 -3 -80 27 -162 66 -191 91 -214
103 -214 111 0 16 93 88 118 92 44 8 107 -3 149 -23z"/>
<path d="M8263 9522 c-33 -37 -110 -128 -172 -202 -62 -74 -136 -162 -164
-194 -29 -33 -70 -82 -92 -110 -22 -28 -81 -99 -130 -156 -50 -58 -100 -119
-112 -136 l-22 -31 72 -60 c96 -79 92 -78 130 -49 l33 26 13 -53 c26 -106 120
-209 240 -264 46 -21 69 -25 157 -25 99 0 106 1 178 36 158 77 266 244 266
410 0 116 -38 203 -129 294 -65 65 -130 97 -214 106 -37 4 -67 11 -67 15 0 4
35 48 78 97 42 49 95 113 117 142 21 29 43 52 47 52 4 0 8 6 8 13 0 13 -129
129 -163 149 -11 6 -31 -11 -74 -60z m12 -573 c108 -40 170 -145 145 -247 -33
-141 -153 -227 -287 -207 -35 5 -57 17 -96 53 -27 26 -56 61 -63 79 -19 45
-17 128 3 171 26 56 112 136 163 155 60 21 70 20 135 -4z"/>
<path d="M4240 9452 c-118 -45 -124 -214 -9 -272 21 -11 49 -20 62 -20 45 0
97 30 128 73 26 36 30 49 27 88 -6 59 -39 106 -92 130 -50 23 -59 23 -116 1z"/>
<path d="M2815 9388 c-22 -5 -73 -26 -112 -45 -202 -101 -305 -320 -244 -519
36 -120 126 -226 236 -280 83 -40 214 -46 307 -14 89 30 178 82 241 140 64 58
127 169 127 224 0 31 -4 36 -27 41 -16 3 -47 10 -71 15 -66 15 -70 14 -97 -44
-37 -78 -117 -148 -201 -176 -64 -22 -69 -22 -118 -6 -29 8 -61 22 -71 30 -26
20 -27 19 185 170 250 178 287 206 300 221 17 20 -10 65 -78 131 -105 102
-244 143 -377 112z m144 -202 c19 -7 41 -22 48 -33 16 -24 35 -7 -238 -201
-88 -62 -88 -62 -101 -40 -6 13 -12 48 -12 79 -1 146 157 248 303 195z"/>
<path d="M1993 8676 c-118 -44 -221 -144 -279 -271 -25 -54 -28 -71 -28 -171
0 -105 2 -116 32 -175 98 -199 316 -302 510 -240 108 35 196 101 275 205 71
94 99 162 101 245 l1 66 -70 3 c-99 4 -113 -1 -120 -46 -11 -69 -36 -121 -82
-172 -73 -82 -157 -113 -241 -91 -23 7 -42 14 -42 17 0 10 58 90 76 105 9 7
60 66 113 129 52 63 114 135 138 160 23 25 51 58 63 73 l22 28 -23 26 c-36 39
-123 92 -186 114 -78 27 -180 25 -260 -5z m172 -190 c19 -8 35 -20 35 -26 0
-13 -55 -81 -180 -223 -79 -91 -85 -96 -102 -80 -40 36 -49 143 -18 208 51
106 170 160 265 121z"/>
<path d="M9520 8118 c-41 -22 -253 -130 -470 -239 -217 -109 -399 -205 -404
-213 -7 -10 24 -80 108 -247 141 -278 171 -326 248 -401 68 -67 123 -101 216
-134 127 -45 298 -26 422 47 8 5 31 17 50 28 54 30 142 125 174 188 16 32 34
67 40 78 6 11 12 80 14 152 3 105 0 145 -13 190 -13 44 -168 370 -244 513 -4
8 -15 29 -24 45 -9 17 -22 31 -29 31 -7 1 -47 -16 -88 -38z m101 -413 c80
-156 98 -228 79 -320 -28 -140 -164 -259 -311 -272 -37 -3 -87 -3 -111 1 -58
9 -164 79 -199 132 -25 37 -149 277 -149 288 0 3 33 21 73 41 39 20 79 40 87
45 8 5 53 27 100 50 47 23 141 70 210 106 69 35 132 63 140 61 8 -1 45 -61 81
-132z"/>
<path d="M1428 7815 c-3 -4 -26 -11 -49 -16 -24 -6 -65 -27 -92 -47 -51 -38
-124 -138 -133 -182 -3 -14 -10 -42 -16 -62 -7 -23 -9 -69 -5 -117 l6 -80 -27
10 c-14 6 -32 15 -39 20 -9 8 -21 -7 -46 -58 -19 -37 -42 -85 -51 -106 l-15
-38 366 -180 c202 -99 374 -178 383 -177 14 3 108 169 109 194 1 6 -43 33 -96
59 -54 26 -149 72 -211 102 -174 86 -210 132 -200 258 8 93 81 165 168 165 46
0 65 -8 376 -161 67 -33 128 -57 136 -54 19 8 102 180 95 198 -8 21 -467 244
-529 257 -81 18 -122 22 -130 15z"/>
<path d="M512 6877 c-61 -34 -91 -150 -57 -217 16 -31 80 -70 113 -70 10 0 37
9 59 20 102 49 110 218 13 267 -32 16 -98 16 -128 0z"/>
<path d="M832 6699 c-33 -127 -33 -141 3 -150 39 -10 148 -41 250 -69 44 -13
98 -26 120 -30 22 -4 65 -15 95 -24 30 -10 80 -24 110 -32 30 -9 78 -22 105
-30 51 -14 71 -17 91 -15 12 1 29 51 49 141 6 30 14 61 16 68 4 14 -34 27
-161 57 -59 13 -222 58 -280 77 -19 6 -60 17 -90 24 -30 7 -86 22 -125 34 -38
12 -91 24 -116 27 l-46 5 -21 -83z"/>
<path d="M9554 6711 c-72 -12 -181 -68 -234 -121 -75 -75 -120 -192 -121 -315
0 -87 23 -200 56 -268 25 -55 122 -167 143 -167 13 0 111 119 112 137 0 6 -15
28 -34 48 -44 46 -62 85 -77 165 -16 88 6 167 61 222 52 52 66 50 79 -14 6
-29 16 -75 22 -103 6 -27 17 -88 24 -133 8 -46 18 -98 24 -115 5 -18 12 -54
15 -82 6 -47 33 -145 41 -145 25 0 149 37 184 55 118 60 205 188 217 320 14
151 -29 283 -124 387 -98 105 -239 152 -388 129z m226 -251 c107 -54 145 -210
75 -307 -34 -47 -92 -90 -104 -77 -10 12 -27 75 -41 154 -6 36 -18 103 -26
149 -8 46 -13 90 -10 97 6 17 55 9 106 -16z"/>
<path d="M713 6197 c-4 -7 -8 -37 -9 -67 -1 -30 -5 -76 -9 -101 l-7 -46 52 -7
52 -7 -45 -47 c-83 -89 -116 -240 -82 -370 10 -37 23 -74 30 -82 7 -8 16 -25
19 -37 10 -32 95 -115 144 -141 65 -34 119 -46 207 -46 84 0 159 16 185 38 8
8 25 17 36 20 57 17 142 141 176 256 16 55 16 196 0 212 -7 7 -12 21 -12 33 0
11 -11 37 -25 57 -14 20 -25 39 -25 42 0 4 20 6 45 6 49 0 128 -34 156 -66 26
-31 49 -106 49 -160 0 -74 -35 -197 -76 -271 -20 -36 -34 -66 -32 -68 32 -28
127 -85 143 -85 31 0 60 43 110 165 9 22 22 83 27 135 34 302 -19 457 -185
538 -86 42 -185 60 -407 72 -102 6 -230 15 -285 20 -182 18 -225 19 -232 7z
m451 -277 c54 -27 74 -47 96 -98 57 -129 -11 -297 -134 -330 -56 -14 -136 -2
-181 30 -125 85 -117 307 15 394 47 31 148 33 204 4z"/>
<path d="M10075 5696 c-22 -8 -78 -28 -125 -46 -47 -18 -125 -47 -175 -65 -49
-19 -115 -43 -145 -55 -100 -38 -124 -47 -224 -84 -55 -19 -104 -40 -109 -45
-5 -5 -11 -63 -14 -129 l-6 -120 94 -45 c248 -118 372 -177 374 -177 2 0 83
-38 180 -86 98 -47 180 -82 184 -79 3 4 7 55 9 114 l4 109 -68 32 c-38 18
-100 47 -139 65 -38 18 -123 58 -188 89 -65 31 -122 56 -125 56 -4 0 -15 7
-25 15 -18 13 -17 14 10 28 28 15 125 50 298 109 50 17 95 34 100 38 6 4 31
13 58 20 26 7 50 17 53 21 3 5 13 9 23 9 25 0 31 27 31 143 0 109 1 107 -75
83z"/>
<path d="M1478 5114 c-3 -3 -48 -12 -99 -20 -51 -8 -96 -17 -100 -20 -4 -2
-45 -11 -91 -20 -46 -8 -115 -21 -155 -29 -142 -26 -249 -100 -295 -203 -29
-64 -31 -196 -3 -267 31 -79 63 -131 105 -168 40 -37 41 -47 7 -47 -30 0 -58
-29 -48 -49 5 -9 12 -48 16 -88 9 -92 19 -106 65 -94 19 5 64 15 100 21 36 6
94 18 130 25 69 14 136 28 223 46 28 5 81 15 116 20 36 6 73 15 82 20 10 5 31
9 48 9 16 0 41 4 55 9 21 9 24 15 20 48 -16 152 -29 183 -77 183 -17 0 -60 -7
-93 -15 -34 -8 -93 -19 -130 -25 -38 -6 -73 -15 -80 -21 -6 -5 -54 -10 -105
-12 -84 -2 -98 1 -132 22 -22 13 -52 42 -68 64 -26 35 -29 48 -29 112 0 60 4
76 25 105 14 19 40 40 57 48 38 17 185 50 275 63 35 4 71 12 80 17 10 5 46 12
81 16 89 10 90 11 82 54 -5 20 -13 64 -19 97 -6 33 -14 70 -16 83 -5 21 -16
28 -27 16z"/>
<path d="M9425 4691 c-97 -26 -222 -135 -270 -236 -67 -142 -84 -303 -44 -410
12 -31 27 -59 34 -62 15 -5 165 64 165 77 0 4 -7 24 -15 43 -21 51 -19 122 7
197 27 81 83 140 157 165 84 28 84 30 16 -205 -7 -25 -23 -81 -34 -125 -12
-44 -27 -93 -32 -110 -6 -16 -16 -52 -24 -80 -7 -27 -17 -58 -20 -67 -5 -13 4
-22 37 -40 37 -19 58 -22 153 -22 103 0 114 2 175 32 154 74 250 236 250 421
0 143 -53 255 -162 344 -73 59 -127 76 -252 82 -61 2 -124 1 -141 -4z m321
-306 c33 -36 43 -55 48 -93 17 -130 -47 -232 -165 -263 -70 -19 -81 -11 -64
48 8 26 24 82 36 123 11 41 27 94 35 118 8 23 14 53 14 65 0 26 17 47 39 47 8
0 33 -20 57 -45z"/>
<path d="M1617 4104 c-48 -24 -87 -46 -87 -48 0 -3 59 -125 131 -271 71 -147
129 -269 127 -270 -8 -9 -231 -116 -234 -113 -4 5 -166 332 -195 396 -16 34
-30 52 -42 52 -21 0 -157 -67 -157 -78 0 -4 27 -61 59 -127 33 -66 65 -131 71
-145 5 -14 14 -33 20 -42 5 -10 15 -26 20 -35 6 -10 13 -25 16 -33 3 -8 12
-28 20 -44 8 -16 13 -30 12 -32 -7 -6 -208 -104 -216 -104 -4 0 -65 117 -135
259 l-127 260 -78 -36 c-42 -20 -82 -41 -89 -47 -9 -8 25 -84 138 -314 82
-166 149 -306 149 -311 0 -5 7 -14 15 -21 8 -7 15 -20 15 -29 0 -9 11 -29 24
-46 l23 -29 174 86 c218 108 540 264 686 334 61 29 114 57 117 62 3 5 -37 94
-88 198 -52 104 -106 214 -120 244 -15 30 -31 62 -36 70 -5 8 -35 70 -67 136
l-58 122 -88 -44z"/>
<path d="M8934 3812 c-18 -13 -96 -183 -90 -198 3 -8 234 -127 513 -265 372
-184 512 -248 523 -241 15 9 98 168 99 189 1 10 -957 494 -1020 516 -9 3 -20
2 -25 -1z"/>
<path d="M8765 3301 c-17 -4 -61 -23 -98 -41 -120 -59 -240 -212 -267 -340 -6
-30 -14 -67 -17 -81 -7 -38 25 -173 55 -227 38 -68 122 -146 199 -184 65 -32
71 -33 183 -32 100 1 122 5 170 27 152 69 266 218 300 394 34 172 -69 360
-246 448 -66 33 -85 38 -162 41 -48 2 -101 0 -117 -5z m151 -240 c94 -43 164
-139 164 -226 0 -97 -77 -191 -175 -214 -129 -29 -286 84 -302 219 -10 85 65
207 142 229 51 15 128 12 171 -8z"/>
<path d="M2392 2887 c-5 -7 -22 -41 -38 -76 l-28 -64 29 -21 c69 -49 85 -72
85 -122 l0 -48 -140 -140 -140 -140 -73 72 c-40 40 -76 72 -80 72 -14 0 -117
-106 -117 -121 0 -8 29 -43 65 -79 35 -36 64 -70 65 -75 0 -6 -29 -40 -65 -75
-36 -35 -65 -69 -65 -75 0 -6 36 -46 79 -89 l79 -79 71 72 c39 39 74 71 77 71
3 0 23 -18 45 -41 47 -49 56 -47 129 26 l54 55 -47 48 -47 48 154 156 c84 86
161 174 172 195 27 56 25 164 -4 225 -42 85 -128 167 -214 202 -28 12 -38 13
-46 3z"/>
<path d="M7918 2873 c-18 -16 -59 -48 -90 -71 -32 -24 -58 -45 -58 -48 0 -3
52 -72 115 -154 63 -82 115 -150 115 -153 0 -2 -27 -7 -59 -10 -87 -7 -162
-46 -235 -119 -137 -138 -164 -311 -76 -488 35 -69 141 -173 213 -208 158 -78
304 -58 460 62 52 40 91 99 113 172 l18 61 27 -29 c32 -36 47 -33 109 22 25
23 57 48 73 57 15 10 27 21 27 25 0 5 -24 37 -52 72 -49 58 -180 224 -303 381
-149 190 -214 273 -226 286 -8 8 -27 32 -42 54 -15 22 -43 57 -61 78 l-34 38
-34 -28z m231 -631 c57 -35 120 -124 128 -180 3 -22 2 -62 -2 -88 -5 -39 -16
-56 -59 -99 -44 -44 -62 -55 -107 -64 -98 -21 -183 19 -252 118 -30 43 -32 52
-32 127 0 68 4 85 24 115 75 107 196 136 300 71z"/>
<path d="M2835 2314 c-78 -43 -128 -120 -129 -199 0 -77 39 -141 170 -275 120
-124 133 -150 96 -183 -27 -25 -83 -21 -141 11 -56 30 -144 111 -166 153 -28
53 -37 54 -119 4 l-76 -47 17 -30 c29 -51 130 -154 196 -201 87 -61 132 -82
216 -101 66 -15 78 -15 133 -1 77 20 130 62 164 131 21 43 26 64 22 102 -7 76
-36 120 -151 237 -60 61 -116 120 -124 132 -34 51 14 102 81 87 74 -16 197
-119 262 -221 19 -29 36 -53 38 -53 2 0 37 20 78 44 85 51 86 53 22 142 -68
96 -177 186 -297 247 -55 27 -74 31 -162 34 -78 3 -107 0 -130 -13z"/>
<path d="M7060 1925 c-76 -15 -145 -44 -215 -88 -70 -45 -88 -61 -130 -122
-49 -72 -45 -93 25 -126 93 -44 92 -44 131 9 66 87 151 131 258 132 97 0 196
-61 158 -99 -6 -6 -17 -11 -25 -11 -8 0 -48 -16 -89 -35 -41 -19 -77 -35 -80
-35 -3 0 -39 -16 -80 -35 -41 -19 -77 -35 -79 -35 -2 0 -32 -13 -66 -29 -35
-16 -80 -36 -101 -45 -48 -19 -54 -37 -31 -89 47 -108 153 -208 257 -244 133
-45 334 1 447 103 176 159 200 388 62 590 -56 83 -139 137 -247 160 -73 16
-111 16 -195 -1z m308 -449 c2 -17 1 -49 -3 -72 -8 -58 -75 -124 -146 -148
-60 -19 -80 -20 -131 -6 -37 11 -108 68 -108 87 0 8 78 53 93 53 5 0 106 46
212 96 62 29 79 27 83 -10z"/>
<path d="M3620 1877 c-45 -15 -48 -42 -16 -122 l25 -60 98 -1 c71 0 109 -5
137 -18 107 -48 155 -106 163 -197 3 -32 3 -59 -1 -59 -7 0 -237 91 -293 116
-17 8 -34 14 -38 14 -4 0 -21 7 -38 14 -53 24 -213 86 -224 86 -14 0 -50 -95
-64 -167 -30 -161 55 -334 207 -419 163 -91 326 -98 468 -18 64 36 142 124
179 201 29 64 31 74 30 183 -1 104 -3 121 -29 175 -54 116 -208 233 -359 274
-53 14 -201 13 -245 -2z m1 -448 c19 -6 43 -15 54 -19 73 -32 228 -90 238 -90
6 0 24 -8 40 -18 l27 -19 -21 -27 c-74 -94 -208 -102 -313 -18 -42 34 -66 88
-66 149 0 29 2 53 4 53 1 0 18 -5 37 -11z"/>
<path d="M6380 1678 c-19 -5 -57 -13 -85 -19 -100 -19 -95 -16 -89 -52 14 -87
48 -236 61 -271 22 -59 22 -223 0 -263 -26 -49 -85 -91 -145 -105 -30 -6 -56
-17 -59 -24 -7 -20 27 -167 43 -185 12 -13 22 -15 44 -9 61 17 134 66 169 112
20 26 39 47 42 47 8 1 19 -36 19 -66 0 -12 4 -24 8 -27 5 -3 46 4 91 14 45 11
91 20 102 20 29 0 33 23 16 82 -9 29 -19 71 -22 93 -3 22 -10 54 -15 70 -9 27
-29 121 -50 235 -5 25 -18 86 -30 135 -11 50 -26 119 -33 154 -7 36 -16 65
-22 67 -5 1 -26 -2 -45 -8z"/>
<path d="M4751 1601 c-8 -5 -17 -42 -22 -92 -5 -46 -12 -92 -15 -102 -3 -9
-12 -72 -20 -140 -16 -142 -29 -235 -49 -367 -8 -52 -17 -117 -21 -144 l-6
-48 -36 6 c-20 4 -82 13 -137 20 -55 8 -118 17 -141 21 l-41 7 -6 -62 c-10
-95 -8 -140 6 -145 6 -3 59 -9 117 -15 99 -9 151 -16 295 -42 33 -5 112 -16
175 -24 63 -8 164 -20 225 -28 60 -8 112 -12 115 -10 2 3 7 31 11 62 4 31 10
73 14 93 6 32 5 37 -16 42 -13 4 -49 7 -79 7 -30 0 -77 7 -104 15 -27 8 -68
15 -91 15 -56 0 -77 27 -52 67 4 6 11 51 16 100 5 48 12 95 15 103 4 8 13 74
21 145 15 131 23 192 50 365 21 132 21 130 -18 130 -29 0 -112 12 -172 25 -11
2 -26 0 -34 -4z"/>
<path d="M5617 1560 c-57 -31 -79 -73 -74 -143 3 -51 8 -62 39 -94 31 -31 45
-37 90 -40 70 -6 101 7 138 58 94 130 -52 295 -193 219z"/>
</g>
</svg>
